<?xml version="1.0" standalone="no"?>
<!DOCTYPE svg PUBLIC "-//W3C//DTD SVG 20010904//EN"
 "http://www.w3.org/TR/2001/REC-SVG-20010904/DTD/svg10.dtd">
<svg version="1.0" xmlns="http://www.w3.org/2000/svg"
 width="1000.000000pt" height="1000.000000pt" viewBox="0 0 1000.000000 1000.000000"
 preserveAspectRatio="xMidYMid meet">
<metadata>
Created by potrace 1.11, written by Peter Selinger 2001-2013
</metadata>
<g transform="translate(0.000000,1000.000000) scale(0.100000,-0.100000)"
fill="#000000" stroke="none">
<path d="M4929 8480 c-36 -5 -120 -24 -185 -41 -65 -17 -163 -41 -216 -55 -54
-13 -134 -42 -178 -64 -44 -22 -104 -50 -132 -61 -28 -11 -85 -42 -127 -70
-85 -56 -77 -56 -201 6 -297 149 -745 235 -1076 207 -469 -40 -880 -200 -1235
-483 -110 -87 -308 -293 -391 -404 -303 -409 -451 -884 -434 -1390 10 -303 67
-552 192 -830 136 -302 332 -561 587 -776 218 -184 439 -310 707 -404 400
-140 823 -161 1230 -60 57 14 111 25 120 25 10 0 24 -17 36 -42 18 -39 57
-104 187 -308 30 -47 64 -105 76 -128 l21 -42 -31 0 c-47 0 -208 -40 -254 -63
-76 -38 -155 -100 -196 -154 -43 -58 -78 -127 -79 -155 0 -10 -4 -18 -10 -18
-5 0 -10 8 -10 18 0 31 -40 83 -75 98 -27 11 -93 14 -315 14 l-280 0 0 75 0
75 341 0 c377 0 387 2 424 63 18 28 20 51 20 194 0 181 -6 200 -76 236 -32 16
-77 17 -624 15 -544 -3 -592 -4 -616 -21 -56 -38 -54 2 -54 -926 0 -809 1
-857 18 -883 40 -59 31 -58 667 -58 511 0 586 2 615 16 40 19 61 48 70 96 l7
36 71 -49 c119 -82 253 -119 429 -119 249 1 465 98 564 254 l27 43 43 -58 c24
-32 67 -77 96 -100 42 -32 57 -54 74 -98 12 -31 36 -87 54 -126 18 -38 43
-112 56 -163 28 -112 58 -168 119 -217 47 -39 129 -75 170 -75 41 0 123 36
170 75 61 49 91 105 119 217 13 51 40 129 60 173 21 44 46 104 57 134 13 38
38 74 85 124 37 39 77 94 91 124 l25 55 45 -67 c103 -154 228 -236 427 -280
154 -34 403 -6 556 64 l45 20 29 -30 c15 -17 39 -35 53 -40 13 -5 119 -9 235
-9 266 0 260 -2 325 126 26 52 50 94 53 94 3 0 20 -33 38 -73 35 -79 70 -123
109 -138 13 -5 119 -9 235 -9 236 0 264 6 292 65 20 41 20 97 2 133 -8 15 -84
141 -170 280 -86 139 -156 258 -156 264 0 6 72 130 161 275 173 284 185 312
154 376 -32 69 -44 72 -290 75 -273 4 -269 5 -336 -121 l-45 -86 -40 81 c-60
125 -55 122 -312 126 -192 2 -221 0 -251 -15 -48 -25 -73 -63 -75 -112 l-1
-40 -30 28 c-87 82 -191 129 -345 155 l-70 11 43 72 c59 100 137 227 183 298
21 33 48 79 58 103 10 23 25 42 32 42 7 0 68 -13 136 -30 390 -94 786 -76
1187 56 659 216 1188 746 1405 1409 75 229 106 427 106 683 0 231 -20 381 -82
602 -139 502 -471 952 -914 1243 -100 65 -268 154 -379 200 -187 77 -453 139
-681 158 -339 28 -745 -48 -1073 -202 -57 -27 -108 -49 -114 -49 -6 0 -38 18
-71 39 -34 22 -88 52 -121 66 -33 14 -96 44 -140 66 -73 36 -281 96 -505 146
-78 17 -444 26 -541 13z m-1699 -276 c157 -23 303 -59 420 -104 30 -11 69 -26
85 -32 54 -20 237 -117 312 -166 106 -67 233 -170 341 -276 l92 -91 -371 -371
-371 -371 -81 82 c-135 134 -230 196 -377 245 -236 80 -424 80 -650 3 -85 -30
-211 -96 -254 -134 -9 -8 -49 -43 -90 -79 -68 -60 -159 -178 -187 -242 -7 -16
-15 -28 -19 -28 -4 0 -10 -8 -13 -17 -3 -10 -23 -65 -44 -123 l-38 -105 0
-195 c0 -189 1 -198 29 -275 40 -114 59 -159 66 -165 4 -3 17 -23 28 -45 12
-22 34 -60 51 -84 37 -56 190 -211 207 -211 7 0 17 -6 21 -13 9 -14 90 -64
146 -91 149 -70 301 -101 460 -93 101 4 231 30 292 56 11 5 36 15 55 22 98 37
256 152 342 250 84 95 154 206 146 229 -3 11 -92 13 -429 11 -234 -1 -437 1
-452 4 l-27 7 0 423 c0 376 2 424 16 429 26 10 1982 7 1988 -3 6 -9 18 -76 37
-206 14 -91 14 -400 0 -490 -20 -134 -44 -256 -67 -334 -25 -88 -103 -281
-141 -351 -20 -36 -46 -83 -57 -105 -26 -48 -99 -151 -182 -254 -59 -73 -256
-271 -269 -271 -4 0 -30 -19 -58 -43 -145 -122 -404 -259 -597 -317 -41 -12
-84 -26 -95 -30 -39 -15 -172 -42 -298 -60 -156 -23 -474 -12 -622 20 -127 28
-151 34 -159 42 -6 4 -18 8 -29 8 -51 0 -357 132 -482 208 -175 106 -317 225
-469 393 -61 67 -186 234 -186 248 0 6 -4 11 -9 11 -12 0 -154 285 -187 375
-28 79 -51 158 -64 225 -5 25 -16 77 -24 115 -8 39 -20 136 -27 218 -14 160
-2 372 27 512 8 39 19 90 24 115 13 67 36 146 64 225 33 90 175 375 187 375 5
0 9 5 9 10 0 25 259 347 296 368 7 4 35 28 61 52 74 69 203 166 288 217 69 40
249 130 316 158 73 29 252 83 319 95 82 15 254 39 305 43 80 7 292 -4 395 -19z
m4390 0 c140 -21 179 -28 245 -48 151 -44 224 -69 270 -91 28 -14 53 -25 56
-25 3 0 55 -27 116 -59 110 -59 245 -149 338 -224 103 -84 281 -276 345 -372
18 -27 41 -59 51 -70 21 -24 139 -246 163 -307 10 -24 24 -56 31 -73 34 -77
95 -298 110 -400 3 -22 9 -62 13 -90 9 -63 9 -425 0 -485 -32 -214 -62 -335
-123 -491 -46 -117 -162 -347 -194 -384 -10 -11 -33 -42 -51 -70 -52 -77 -106
-140 -215 -250 -84 -85 -253 -224 -317 -260 -10 -5 -54 -32 -98 -58 -95 -58
-308 -151 -394 -173 -34 -9 -70 -20 -81 -24 -18 -7 -39 -13 -135 -34 -173 -40
-494 -50 -675 -22 -319 50 -538 131 -812 299 -196 120 -396 306 -538 500 -108
148 -103 141 -174 277 -88 173 -144 327 -176 495 -7 39 -18 91 -24 116 -6 26
-15 108 -21 183 -22 288 35 642 144 901 40 94 138 279 179 338 23 33 47 67 52
76 23 38 167 210 217 257 187 181 414 331 658 438 31 13 131 47 225 76 110 33
269 59 455 74 72 6 257 -4 360 -20z m-2303 -880 c59 -9 110 -18 112 -20 7 -6
-20 -62 -38 -78 -15 -14 -23 -14 -76 1 -74 20 -247 22 -330 4 -33 -7 -107 -31
-164 -53 -127 -49 -268 -151 -350 -253 -30 -37 -65 -71 -78 -76 -27 -10 -96
-12 -105 -3 -14 13 80 140 163 222 60 59 118 103 181 140 129 75 167 89 298
111 144 24 250 25 387 5z m-2450 -342 c10 -6 10 -21 1 -70 l-11 -61 -46 -6
c-25 -4 -52 -8 -59 -10 -10 -4 -12 -131 -10 -612 l3 -608 72 -6 c40 -3 76 -8
79 -12 4 -4 11 -31 15 -60 4 -28 10 -70 14 -91 l8 -39 -74 6 c-185 14 -391
125 -516 276 -65 79 -146 242 -165 331 -21 103 -16 299 11 395 54 197 212 393
393 488 50 26 145 60 213 76 53 12 58 12 72 3z m244 -9 c11 -11 -17 -114 -35
-125 -15 -11 -88 -10 -105 1 -11 7 -11 18 -1 62 18 75 25 82 83 76 26 -2 52
-8 58 -14z m358 -1380 c-27 -32 -157 -110 -230 -137 -40 -15 -101 -30 -134
-33 l-60 -5 -35 53 c-55 86 -67 118 -47 131 7 4 126 8 266 8 236 0 252 -1 240
-17z m1856 -263 c33 -74 71 -155 84 -180 43 -82 171 -269 245 -358 83 -100
253 -266 341 -333 145 -112 352 -231 525 -304 98 -41 96 -37 41 -119 -26 -39
-67 -102 -90 -141 -63 -104 -152 -244 -187 -295 -30 -43 -36 -46 -120 -68
-148 -37 -256 -117 -349 -256 -30 -46 -55 -89 -56 -97 0 -8 -9 9 -19 38 -52
145 -188 261 -370 313 -116 34 -299 38 -414 11 -173 -42 -276 -108 -357 -230
l-52 -79 -21 41 c-29 60 -140 167 -213 205 -35 18 -107 44 -160 58 -54 13
-100 28 -104 32 -9 9 -75 112 -162 249 -37 59 -92 146 -122 193 -30 47 -55 91
-55 98 0 7 26 24 58 38 436 192 733 427 983 779 108 151 168 259 245 440 21
50 41 92 45 95 4 3 56 5 115 5 l108 0 61 -135z m-2015 -1625 l0 -125 -390 0
-390 0 0 -205 0 -205 335 0 335 0 0 -125 0 -125 -335 0 -335 0 0 -235 0 -235
395 0 395 0 0 -125 0 -125 -560 0 -560 0 0 815 0 815 555 0 555 0 0 -125z
m823 -300 c173 -45 292 -164 304 -304 l5 -56 -154 -2 -154 -3 -11 43 c-23 85
-81 127 -175 127 -127 -1 -207 -90 -164 -182 24 -50 74 -73 249 -117 85 -22
186 -54 223 -71 86 -41 155 -110 177 -175 21 -62 22 -168 1 -229 -34 -99 -154
-194 -294 -232 -82 -22 -281 -25 -360 -5 -187 46 -323 177 -345 334 l-7 47
150 0 151 0 6 -34 c17 -89 98 -146 210 -146 85 0 128 15 164 56 58 65 33 147
-60 194 -20 11 -95 34 -166 51 -302 73 -416 172 -416 359 0 93 22 149 89 221
72 76 153 118 269 139 67 12 236 4 308 -15z m1190 0 c174 -45 292 -164 305
-307 l5 -58 -155 0 -156 0 -7 38 c-9 48 -49 101 -91 118 -49 21 -137 18 -184
-6 -100 -51 -104 -166 -8 -220 23 -13 110 -40 193 -60 84 -21 183 -52 220 -70
87 -41 156 -109 178 -175 21 -62 22 -168 1 -229 -34 -99 -154 -194 -294 -232
-81 -22 -280 -25 -360 -5 -187 46 -323 177 -345 334 l-6 47 148 0 149 0 12
-47 c23 -85 99 -133 213 -133 79 0 123 16 158 56 58 66 33 147 -60 195 -22 10
-86 31 -144 45 -251 60 -357 119 -411 230 -55 112 -32 251 58 349 75 82 158
126 278 145 73 12 230 4 303 -15z m1227 -4 c117 -37 206 -114 264 -228 41 -82
56 -156 63 -315 l6 -148 -368 0 -367 0 6 -37 c16 -92 66 -171 134 -210 44 -27
53 -28 167 -28 112 1 125 3 200 34 43 17 85 37 92 43 10 8 17 0 32 -33 10 -24
30 -70 44 -101 l26 -58 -27 -18 c-110 -78 -241 -114 -417 -116 -200 -1 -314
42 -429 165 -113 119 -156 243 -156 449 0 145 19 233 71 338 73 150 207 255
359 281 79 14 224 5 300 -18z m875 -178 c49 -104 91 -192 95 -196 4 -4 49 80
100 188 l94 195 183 0 183 0 -139 -227 c-76 -126 -157 -259 -180 -297 -23 -37
-40 -75 -37 -83 3 -8 85 -143 182 -301 97 -158 178 -290 181 -294 2 -5 -77 -8
-176 -8 l-181 0 -102 203 -101 202 -98 -202 -98 -203 -182 0 c-141 0 -180 3
-176 13 3 6 86 144 186 305 l181 294 -180 294 c-99 162 -180 296 -180 299 0 3
80 5 178 5 l179 0 88 -187z m-326 -275 l83 -136 -114 -186 c-62 -102 -116
-186 -119 -186 -3 0 -20 31 -37 69 l-30 70 29 6 c39 9 85 56 93 96 18 91 1
346 -30 453 -8 29 25 -21 125 -186z m-3119 122 c13 -9 13 -10 0 -9 -8 0 -24 4
-35 9 l-20 9 20 0 c11 0 27 -4 35 -9z m1190 0 c13 -9 13 -10 0 -9 -8 0 -24 4
-35 9 l-20 9 20 0 c11 0 27 -4 35 -9z m-1786 -229 c10 -18 35 -52 57 -76 l39
-42 -49 -7 c-63 -8 -107 -44 -121 -97 l-11 -39 -319 0 -320 0 0 105 0 105 284
0 c157 0 296 4 309 9 39 15 65 49 78 104 l12 51 12 -39 c6 -22 20 -55 29 -74z
m1190 0 c10 -18 36 -53 58 -77 33 -35 37 -44 22 -44 -11 0 -35 -3 -54 -6 -32
-5 -37 -3 -49 23 -6 15 -33 58 -58 95 -44 65 -48 88 -15 88 9 0 26 7 37 15 18
14 20 13 30 -22 7 -21 20 -53 29 -72z m1116 62 c0 -10 -3 -28 -6 -40 -6 -22
-7 -22 -45 10 l-38 32 27 6 c48 12 62 10 62 -8z m801 -335 c-49 -7 -84 -7
-105 0 -25 8 -10 10 74 10 l105 -1 -74 -9z m-2541 -24 c32 -11 33 -13 9 -13
-33 -1 -89 18 -89 31 0 9 15 6 80 -18z m1190 0 c32 -11 33 -13 9 -13 -33 -1
-89 18 -89 31 0 9 15 6 80 -18z m260 -489 c-6 -16 -24 -81 -40 -146 -16 -65
-37 -133 -46 -151 -37 -74 -88 -108 -159 -108 -111 0 -156 60 -213 280 -17 63
-33 122 -37 131 -6 16 0 16 67 3 97 -19 265 -16 358 5 41 9 76 16 78 15 1 0
-2 -14 -8 -29z"/>
<path d="M7200 7169 c-308 -63 -523 -206 -684 -456 -25 -39 -46 -74 -46 -77 0
-3 -11 -29 -24 -59 -63 -136 -91 -352 -67 -517 13 -90 57 -225 99 -305 198
-378 621 -592 1027 -521 265 47 469 174 643 401 5 6 24 37 43 70 108 188 151
389 129 598 -15 138 -58 267 -129 392 -40 69 -32 59 -112 152 -136 160 -340
275 -564 318 -87 16 -243 18 -315 4z m157 -274 c53 -222 57 -246 84 -550 14
-146 15 -228 6 -265 -3 -14 -8 -50 -12 -80 -8 -76 -11 -89 -39 -225 -13 -66
-27 -141 -31 -166 -6 -50 -83 -179 -113 -190 -57 -20 -261 55 -374 137 -133
98 -265 289 -291 420 l-6 32 287 3 c284 4 288 4 337 29 40 20 55 36 75 75 24
49 25 55 23 245 -1 240 -13 330 -60 488 -42 141 -42 144 42 140 l50 -3 22 -90z
m263 52 c92 -34 134 -58 215 -120 139 -107 246 -270 285 -435 27 -111 27 -278
1 -384 -70 -283 -282 -497 -573 -578 -77 -21 -168 -27 -168 -10 0 28 34 206
55 285 38 144 65 301 65 373 0 37 4 83 10 102 45 171 26 472 -46 713 -13 44
-24 83 -24 85 0 11 121 -10 180 -31z"/>
<path d="M6281 3163 c-58 -29 -104 -109 -126 -220 l-7 -33 206 0 206 0 0 38
c0 95 -52 191 -117 218 -44 19 -121 17 -162 -3z m102 -120 c-7 -2 -19 -2 -25
0 -7 3 -2 5 12 5 14 0 19 -2 13 -5z"/>
</g>
</svg>
