<svg id="Layer_1" data-name="Layer 1" xmlns="http://www.w3.org/2000/svg" width="110.72" height="119.12" viewBox="0 0 110.72 119.12"><title>exraid</title><path d="M681.45,444.94l-3.4-12.19q-4-14.55-8.08-29.12c-.23-.84-.76-.75-1.36-.74A46.78,46.78,0,0,1,656,401.52c-9.18-2.34-16.31-7.63-21.88-15.16-.34-.47-.34-.68.21-1,5.74-3,11.44-6.15,17.27-9,1.43-.7,2.67,0,3.77.83a19.07,19.07,0,0,0,8.93,3.78c6,.77,15-3.08,17.27-11.37a21.43,21.43,0,0,0,.73-6.52,4.32,4.32,0,0,1,2.39-4.23q26-13.78,52-27.49c.25-.14.51-.54.82-.27s0,.65-.18.93q-7.75,15.75-15.55,31.48l-26.11,52.75L682,444C681.87,444.27,681.69,444.53,681.45,444.94Zm-29.13-64.55a1.4,1.4,0,0,0-1.67.05c-3.9,1.76-7.62,3.85-11.34,5.94-.61.12-.45.42-.15.72l2.29,2.21c.22.53.8.62,1.17,1A31.87,31.87,0,0,0,659,398.63l.09.06.1,0a2.46,2.46,0,0,0,1.49.22l.08.05.09,0c.3.07.61.17.92.21a35.77,35.77,0,0,0,10.28-.11c1-.15,1.25.17,1.4,1,.19,1.06.52,2.09.79,3.14q3.4,13.35,6.82,26.7c.42,1.66.86,3.31,1.38,5.27l48.69-97.37c-.66-.24-.82.22-1.11.37l-28,14.69-13.27,7c-1.57.82-2.74,1.92-2.73,3.87a20.62,20.62,0,0,1-5.25,14.52l-.68.67-1.12.9a22,22,0,0,1-10.51,4.89,20.05,20.05,0,0,1-14.14-3.29A5.11,5.11,0,0,0,652.32,380.39Z" transform="translate(-627 -325.82)"/><path d="M666.53,325.82c9.89.33,19.11,3.45,26.5,11a29.42,29.42,0,0,1,4.29,5.74c.37.62.39.89-.3,1.25-5.59,2.88-11.17,5.81-16.77,8.69a3.08,3.08,0,0,1-3.54-.63,19.14,19.14,0,0,0-8.45-4c-7.32-1.41-19.33,4.37-19,15.74,0,1,.06,2.06.17,3.1a2.58,2.58,0,0,1-1.49,2.84q-8.35,4.28-16.64,8.69c-.72.39-1,.28-1.29-.45a32.24,32.24,0,0,1-1.81-22.1,38.86,38.86,0,0,1,19-25C653,327.38,659.36,326,666.53,325.82ZM630.91,368a3.37,3.37,0,0,0,.27,1.47,16.92,16.92,0,0,0,.9,3.33c.23.8.53,1,1.32.54,3.09-1.67,6.19-3.3,9.32-4.86a4.12,4.12,0,0,0,2.6-3.48c.11-1.35.18-2.7.27-4.05l0-.42c.37-1.26.68-2.54,1.14-3.76a17.59,17.59,0,0,1,5.17-7.69A23.87,23.87,0,0,1,663.68,344l.4,0a21.43,21.43,0,0,1,15.44,4.89.68.68,0,0,0,.86,0q5.88-3.1,11.78-6.17c.42-.22.51-.37.16-.76a42,42,0,0,0-5.56-5.44,34.17,34.17,0,0,0-22.84-7.16,33,33,0,0,0-10.25,2.11,1.17,1.17,0,0,0-.87.29,29.32,29.32,0,0,0-10.68,6.59,35.29,35.29,0,0,0-4.71,5.2,34.65,34.65,0,0,0-6.22,14.12.09.09,0,0,0,0,.15A2.39,2.39,0,0,0,631,359a.11.11,0,0,0,0,.18A21.51,21.51,0,0,0,630.91,368Z" transform="translate(-627 -325.82)"/><path d="M678.55,364.39a13.2,13.2,0,0,1-12.49,13.21,12.88,12.88,0,0,1-13.37-12.83c-.12-7.08,5.87-13,13.13-13.09A12.53,12.53,0,0,1,678.55,364.39Zm-3.44,1.13a3.49,3.49,0,0,0,0-1.44,2.22,2.22,0,0,0-.19-1.27l-.07-.4a9.27,9.27,0,0,0-.29-1c-2.5-6.6-11.57-8.33-16-3.06L658,359a9.43,9.43,0,0,0,2.39,13.38,9,9,0,0,0,9.64.77A8.69,8.69,0,0,0,675.11,365.52Z" transform="translate(-627 -325.82)"/><path d="M660.72,398.89a2.46,2.46,0,0,1-1.49-.22c.23-.1.55.1.75-.21-.35-.09-.68-.14-.94.17a31.87,31.87,0,0,1-16.42-8.35c-.37-.35-1-.44-1.17-1,.18-.1.2-.23.07-.37a12.84,12.84,0,0,1-2.21-2.56c3.72-2.09,7.44-4.18,11.34-5.94a1.44,1.44,0,0,0,1.67-.05,5.11,5.11,0,0,1,2,1,20.05,20.05,0,0,0,14.14,3.29A22,22,0,0,0,679,379.77l1.12-.9c.61.17.81-.09.68-.67a20.62,20.62,0,0,0,5.25-14.52c0-1.95,1.16-3.05,2.73-3.87l13.27-7,28-14.69c.29-.15.45-.61,1.11-.37l-48.69,97.37c-.52-2-1-3.61-1.38-5.27q-3.42-13.35-6.82-26.7c-.27-1.05-.6-2.08-.79-3.14-.15-.86-.4-1.18-1.4-1a35.77,35.77,0,0,1-10.28.11c-.31,0-.62-.14-.92-.21.23-.13.56.11.77-.21C661.3,398.61,661,398.56,660.72,398.89Z" transform="translate(-627 -325.82)" fill="#afafaf"/><path d="M639.31,386.38a12.84,12.84,0,0,0,2.21,2.56c.13.14.11.27-.07.37l-2.29-2.21C638.86,386.8,638.7,386.5,639.31,386.38Z" transform="translate(-627 -325.82)" fill="#b5b5b3"/><path d="M652.32,380.39a1.44,1.44,0,0,1-1.67.05A1.4,1.4,0,0,1,652.32,380.39Z" transform="translate(-627 -325.82)" fill="#b9baba"/><path d="M680.8,378.2c.13.58-.07.84-.68.67Z" transform="translate(-627 -325.82)" fill="#b7b7b6"/><path d="M659,398.63c.26-.31.59-.26.94-.17-.2.31-.52.11-.75.21l-.1,0Z" transform="translate(-627 -325.82)" fill="#bbb"/><path d="M660.72,398.89c.25-.33.58-.28.94-.18-.21.32-.54.08-.77.21l-.09,0Z" transform="translate(-627 -325.82)" fill="#bbb"/><path d="M663.68,344a23.87,23.87,0,0,0-11.74,5.13,17.59,17.59,0,0,0-5.17,7.69c-.46,1.22-.77,2.5-1.14,3.76-.1-.16.08-.43-.21-.52-.08.35-.14.68.17.94-.09,1.35-.16,2.7-.27,4.05a4.12,4.12,0,0,1-2.6,3.48c-3.13,1.56-6.23,3.19-9.32,4.86-.79.43-1.09.26-1.32-.54a16.92,16.92,0,0,1-.9-3.33A4.92,4.92,0,0,0,631,367l-.11,1.05a21.51,21.51,0,0,1,0-8.79c.13.23-.11.56.25.79,0-.38.13-.72-.22-1a2.39,2.39,0,0,1,.19-1.29c.14.24-.08.57.22.79.1-.36.15-.69-.18-.94a34.65,34.65,0,0,1,6.22-14.12,35.29,35.29,0,0,1,4.71-5.2,29.32,29.32,0,0,1,10.68-6.59c.45.46.82,0,1.21-.1l-.34-.19a33,33,0,0,1,10.25-2.11,34.17,34.17,0,0,1,22.84,7.16,42,42,0,0,1,5.56,5.44c.35.39.26.54-.16.76q-5.91,3.06-11.78,6.17a.68.68,0,0,1-.86,0,21.43,21.43,0,0,0-15.44-4.89c-.45-.4-1-.21-1.44-.06Z" transform="translate(-627 -325.82)" fill="#debbe5"/><path d="M630.91,368,631,367a4.92,4.92,0,0,1,.16,2.52A3.37,3.37,0,0,1,630.91,368Z" transform="translate(-627 -325.82)" fill="#e9c4ef"/><path d="M653.67,331.4l.34.19c-.39.11-.76.56-1.21.1A1.17,1.17,0,0,1,653.67,331.4Z" transform="translate(-627 -325.82)" fill="#e2bee8"/><path d="M663.68,344l-1-.11c.49-.15,1-.34,1.44.06Z" transform="translate(-627 -325.82)" fill="#edc7f4"/><path d="M631.19,357.6c.33.25.28.58.18.94-.3-.22-.08-.55-.22-.79A.09.09,0,0,1,631.19,357.6Z" transform="translate(-627 -325.82)" fill="#efc9f6"/><path d="M631,359c.35.25.21.59.22,1-.36-.23-.12-.56-.25-.79A.11.11,0,0,1,631,359Z" transform="translate(-627 -325.82)" fill="#efc9f6"/><path d="M645.59,361c-.31-.26-.25-.59-.17-.94.29.09.11.36.21.52Z" transform="translate(-627 -325.82)" fill="#edc8f5"/><path d="M674.92,362.81a2.22,2.22,0,0,1,.19,1.27,1.12,1.12,0,0,0,0,1.44,8.69,8.69,0,0,1-5,7.59,9,9,0,0,1-9.64-.77A9.43,9.43,0,0,1,658,359c.56.13.7,0,.53-.64,4.42-5.27,13.49-3.54,16,3.06a9.27,9.27,0,0,1,.29,1c-.32.38-.25.79-.05,1.36Z" transform="translate(-627 -325.82)" fill="#8be419"/><path d="M658.57,358.32c.17.59,0,.77-.53.64Z" transform="translate(-627 -325.82)" fill="#8de61c"/><path d="M674.92,362.81l-.12,1c-.2-.57-.27-1,.05-1.36Z" transform="translate(-627 -325.82)" fill="#94f31b"/><path d="M675.11,365.52a1.12,1.12,0,0,1,0-1.44A3.49,3.49,0,0,1,675.11,365.52Z" transform="translate(-627 -325.82)" fill="#91ed1d"/></svg>