<svg id="Layer_1" data-name="Layer 1" xmlns="http://www.w3.org/2000/svg" width="103.1463" height="110.7602" viewBox="0 0 103.1463 110.7602"><title>gym_small</title><path d="M72.8373,277.0815l-52.5538,106.15c-3.5981-12.8453-7.16-25.4815-10.6417-38.14-.2878-1.0464-.7861-1.0857-1.6044-1.0665a39.0418,39.0418,0,0,1-17.6759-3.4593,37.1168,37.1168,0,0,1-14.0674-11.8186c-.3294-.44-.3821-.66.2018-.9656,5.3251-2.7889,10.58-5.7136,15.9968-8.3251,1.3333-.6427,2.4907-.0275,3.5461.7363a18.14,18.14,0,0,0,8.0269,3.4706c7.6321,1.1467,15.6919-4.8268,16.7743-12.489a19.7384,19.7384,0,0,0,.2376-3.94,4.125,4.125,0,0,1,2.3886-4.1718q11.5959-6.1741,23.2012-12.3306,12.9179-6.84,25.8536-13.647C72.5766,277.0558,72.6611,277.0815,72.8373,277.0815ZM3.28,340.6259a19.7188,19.7188,0,0,0,6.1576.0038l.624-.0464a3.7919,3.7919,0,0,0,1.7455-.1886l.4112-.0594c.4837.0745.4428.4734.5334.8172.7612,2.8885,1.5367,5.7732,2.3079,8.659a3.191,3.191,0,0,0,.3312,1.3381c.3923,1.6241.7628,3.254,1.1812,4.8714q1.8681,7.22,3.7666,14.4329a3.2115,3.2115,0,0,0,.3293,1.3362l.5068,2.2144c.2125-.3693.3181-.5333.405-.7066q5.2722-10.5234,10.5405-21.0488Q44.149,328.1928,56.17,304.1328q4.9141-9.84,9.7989-19.6938c.2057-.2737.48-.5358.1306-.9355l-1.3053.743-4.37,2.33a10.9045,10.9045,0,0,0-2.3569,1.24c-3.8113,1.985-7.63,3.9565-11.4323,5.9584q-7.5015,3.9493-14.9832,7.9363a6.5492,6.5492,0,0,0-1.9017.9935c-.4629.22-.9122.4774-1.3911.6547-3.06,1.1336-4.3782,3.2859-3.863,6.529l-.055.6644a20.5832,20.5832,0,0,1-3.8155,9.4881l-1.2378,1.3449a41.179,41.179,0,0,1-4.0554,3.1253l-.9426.5124c-2.2509.8822-4.3911,1.9687-6.9,2.2093a19.8091,19.8091,0,0,1-12.0043-2.88A6.471,6.471,0,0,0-6.9762,323.1a1.4872,1.4872,0,0,0-1.192.004A78.27,78.27,0,0,0-16.0948,327.2a3.287,3.287,0,0,0-1.2108.6556,5.6731,5.6731,0,0,0-1.7286.9484c-.3834.059-.3423.2783-.1378.4728a18.0834,18.0834,0,0,0,2.8339,2.64,5.2454,5.2454,0,0,0,1.516,1.435c.9587.7032,1.896,1.4389,2.8851,2.0966a29.6444,29.6444,0,0,0,14.57,5.1221Z" transform="translate(30.309 -272.4713)"/><path d="M-30.3088,308.2707c.0066-16.4275,11.98-31.4254,28.0725-34.85,11.3882-2.4233,21.8557-.2682,31.0269,7.15a27.2293,27.2293,0,0,1,6.2134,7.3824c.3347.5628.3986.8836-.3024,1.2431-5.0977,2.6145-10.1748,5.2693-15.2549,7.918a2.9955,2.9955,0,0,1-3.5338-.4079,16.2848,16.2848,0,0,0-11.2493-3.9153c-6.6617.3415-12.9092,5.5544-14.1776,12.0583a12.9877,12.9877,0,0,0-.1183,4.6355,3.3909,3.3909,0,0,1-2.1517,4.0839c-4.8636,2.3727-9.627,4.9521-14.4063,7.4943-.8021.4267-1.127.4032-1.5311-.5044A29.5843,29.5843,0,0,1-30.3088,308.2707Zm14.7059,3.5625a2.0819,2.0819,0,0,0,1.4522-.9508,3.3649,3.3649,0,0,0,.8479-2.5363,19.945,19.945,0,0,1,3.9162-11.9372l.9926-1.13.4976-.5,1.3934-1.241a32.2434,32.2434,0,0,1,4.8706-2.822L.4924,289.97a20.7041,20.7041,0,0,1,10.053-.2662,23.0383,23.0383,0,0,1,7.7159,3.9447.8422.8422,0,0,0,1.0669.1289c2.2-1.1992,4.4156-2.371,6.6257-3.5523a9.9,9.9,0,0,0,2.9375-1.6721c.6194-.0173,1.3151-.228,1.4677-.755.1371-.4736-.4088-.9821-.8049-1.3729-.8742-.8625-1.78-1.693-2.6407-2.569a27.2972,27.2972,0,0,0-7.5885-5.1522,1.582,1.582,0,0,0-.5836-.0369,3.714,3.714,0,0,0-2.4259-.9857c-.1477-.3531-.4836-.1339-.7142-.2348A28.2119,28.2119,0,0,0-.5663,276.2414l-.3944.0715a24.8317,24.8317,0,0,0-6.5882,2.0686,13.2011,13.2011,0,0,0-3.5176,1.7117,27.4259,27.4259,0,0,0-6.9723,5.6674,3.2344,3.2344,0,0,0-.9532,1.0452,30.0809,30.0809,0,0,0-5.4685,8.6821l-.3191.8777a19.0231,19.0231,0,0,0-1.6116,5.12c-.4409.4743-.2227,1.0655-.2853,1.6069a1.9828,1.9828,0,0,0-.19,1.26,21.18,21.18,0,0,0,.47,9.1232,3.1583,3.1583,0,0,0,.4416,1.4915c.47,2.1065.47,2.1065,1.6941,1.3666a28.0531,28.0531,0,0,0,4.61-2.3513,20.3485,20.3485,0,0,0,4.0678-2.1608Z" transform="translate(30.309 -272.4713)"/><path d="M17.5686,308.2663a12.095,12.095,0,0,1-12.13,12.2555,11.8656,11.8656,0,0,1-11.96-11.88A12.3422,12.3422,0,0,1,5.9018,296.4369,11.6715,11.6715,0,0,1,17.5686,308.2663Zm-6.1851,6.928a7.2521,7.2521,0,0,0,1.989-2.4459,8.1613,8.1613,0,0,0,.2542-7.6587c-.3739-1.1878-1.3637-1.8979-2.1049-2.8128-2.0754-2.5622-6.9294-3.1518-9.4454-1.7986a2.4289,2.4289,0,0,0-1.13.5309,1.2881,1.2881,0,0,0-.734.4292,6.0327,6.0327,0,0,0-1.658,1.7238,8.4451,8.4451,0,0,0-.0075,10.318,1.7119,1.7119,0,0,0,.6886.8321,3.9637,3.9637,0,0,0,1.5893,1.3618,6.2954,6.2954,0,0,0,3.2376,1.3842l.2438.0185A7.6223,7.6223,0,0,0,11.3835,315.1943Z" transform="translate(30.309 -272.4713)"/><path d="M-19.0342,328.8038a5.6755,5.6755,0,0,1,1.7286-.9485.9391.9391,0,0,0,1.2108-.6555,78.27,78.27,0,0,1,7.9266-4.0954.8508.8508,0,0,0,1.192-.004A6.471,6.471,0,0,1-4.515,324.353a19.8091,19.8091,0,0,0,12.0043,2.88c2.5087-.2406,4.6489-1.3271,6.9-2.2094.5583.2784.8813.1237.9426-.5123a41.1647,41.1647,0,0,0,4.0554-3.1254,1.3239,1.3239,0,0,0,1.2378-1.3447,20.5839,20.5839,0,0,0,3.8155-9.4883l.1019.7828c.0784-.4918.35-.994-.0469-1.4471-.5152-3.2431.8027-5.3954,3.863-6.529.4789-.1773.9282-.4345,1.3911-.6547a1.867,1.867,0,0,0,1.9017-.9935q7.4907-3.97,14.9832-7.9363c3.8025-2.0019,7.621-3.9734,11.4324-5.9585,1.0849.1552,1.7231-.5384,2.3568-1.24l4.3705-2.33c.3469.3367.8394-.2145,1.1747.1925Q61.07,294.2863,56.17,304.1328q-12.0172,24.0618-24.0493,48.1163-5.264,10.5276-10.5405,21.0488c-.0869.1733-.1925.3373-.405.7066l-.5068-2.2144c.4871-.5907-.1092-1.1071-.114-1.664-.2133.0163-.1649.2045-.2153.3278q-1.8853-7.2159-3.7666-14.4329c-.4184-1.6174-.7889-3.2473-1.1812-4.8714.4823-.59-.1118-1.1063-.1152-1.663-.2144.0136-.1653.2024-.216.3249-.7712-2.8858-1.5467-5.7705-2.3079-8.659-.0906-.3438-.05-.7427-.5334-.8172a1.8554,1.8554,0,0,0-1.6722-.0348l1.261.0942a3.7919,3.7919,0,0,1-1.7455.1886,3.8972,3.8972,0,0,0-2.33-.2022c-1.6992.0545-3.4154-.2774-5.0982.1891a29.6444,29.6444,0,0,1-14.57-5.1221c-.9891-.6577-1.9264-1.3934-2.8851-2.0966a5.2454,5.2454,0,0,1-1.516-1.435C-16.9292,330.6125-18.2382,329.93-19.0342,328.8038Z" transform="translate(30.309 -272.4713)" fill="#f9d707"/><path d="M2.6333,340.57c1.6828-.4665,3.399-.1346,5.0982-.1891a3.8972,3.8972,0,0,1,2.3305.2022l-.6244.0464L3.28,340.6259Z" transform="translate(30.309 -272.4713)" fill="#fee906"/><path d="M-19.0342,328.8038c.796,1.1265,2.105,1.8087,2.6961,3.1127a18.0834,18.0834,0,0,1-2.8339-2.64C-19.3765,329.0821-19.4176,328.8628-19.0342,328.8038Z" transform="translate(30.309 -272.4713)" fill="#fbf009"/><path d="M3.28,340.6259l6.1572.0038A19.7163,19.7163,0,0,1,3.28,340.6259Z" transform="translate(30.309 -272.4713)" fill="#f9d707"/><path d="M60.4236,286.5764c-.6337.702-1.2719,1.3956-2.3568,1.24A10.9055,10.9055,0,0,1,60.4236,286.5764Z" transform="translate(30.309 -272.4713)" fill="#f2e309"/><path d="M31.6512,301.7116a1.867,1.867,0,0,1-1.9017.9935A6.5492,6.5492,0,0,1,31.6512,301.7116Z" transform="translate(30.309 -272.4713)" fill="#f9ec09"/><path d="M65.9688,284.439c-.3353-.407-.8278.1442-1.1747-.1925l1.3053-.743C66.4492,283.9032,66.1745,284.1653,65.9688,284.439Z" transform="translate(30.309 -272.4713)" fill="#f0e60a"/><path d="M15.06,349.8115c.0507-.1225.0016-.3113.216-.3249.0034.5567.5975,1.0726.1151,1.663A3.1924,3.1924,0,0,1,15.06,349.8115Z" transform="translate(30.309 -272.4713)" fill="#f5e509"/><path d="M20.6249,320.0414a1.3239,1.3239,0,0,1-1.2378,1.3447Z" transform="translate(30.309 -272.4713)" fill="#f1e609"/><path d="M20.339,370.4539c.05-.1233.002-.3115.2153-.3278.0048.5569.6011,1.0733.114,1.664A3.2115,3.2115,0,0,1,20.339,370.4539Z" transform="translate(30.309 -272.4713)" fill="#f5e509"/><path d="M-16.0948,327.2a.9391.9391,0,0,1-1.2108.6555A3.2882,3.2882,0,0,1-16.0948,327.2Z" transform="translate(30.309 -272.4713)" fill="#eee209"/><path d="M11.8075,340.3947l-1.261-.0942a1.8554,1.8554,0,0,1,1.6722.0348Z" transform="translate(30.309 -272.4713)" fill="#fef709"/><path d="M15.3317,324.5115c-.0613.636-.3843.7907-.9426.5123Z" transform="translate(30.309 -272.4713)" fill="#f7eb09"/><path d="M24.4954,309.8888c.3968.4531.1253.9553.0469,1.4471l-.1019-.7828Z" transform="translate(30.309 -272.4713)" fill="#fef609"/><path d="M-6.9762,323.1a.8508.8508,0,0,1-1.192.004A1.4872,1.4872,0,0,1-6.9762,323.1Z" transform="translate(30.309 -272.4713)" fill="#fefd0a"/><path d="M25.9539,290.2255c-2.21,1.1813-4.4253,2.3531-6.6257,3.5523a.8422.8422,0,0,1-1.0669-.1289,23.0383,23.0383,0,0,0-7.7159-3.9447c-.5711-.9741-1.6158-.686-2.4356-.8006A15.9428,15.9428,0,0,0-.2557,289.96c-.4481.2712-1.1991-.01-1.3766.755A32.23,32.23,0,0,0-6.503,293.537c-.8794-.0522-1.2328.4862-1.3934,1.241l-.4976.5c-.7074.0462-1.1.3686-.9926,1.13a19.945,19.945,0,0,0-3.9162,11.9372,3.3649,3.3649,0,0,1-.8479,2.5363,1.8857,1.8857,0,0,0-1.4522.9508l.02-.0117a13.67,13.67,0,0,0-4.1536,1.8835,1.4811,1.4811,0,0,0,.0859.2773,28.0531,28.0531,0,0,1-4.61,2.3513c-.9879.0437-1.1442-.7418-1.4014-1.4166-.2019-.53-.231-.1741-.2927.05a3.1583,3.1583,0,0,1-.4416-1.4915c.3675-.3809.1669-.7936.1045-1.2226a29.9184,29.9184,0,0,1-.2118-7.6622c.1122-1.008.6809-2.0565.1127-3.1056a19.0231,19.0231,0,0,1,1.6116-5.12c.6361-.1.6016-.4437.3191-.8777a30.0809,30.0809,0,0,1,5.4685-8.6821c.6468-.0563.7987-.2229.9532-1.0452a27.4259,27.4259,0,0,1,6.9723-5.6674c.1632.264.3658.2121.5983.0939.9387-.4775,1.8828-.9444,2.8231-1.4188.1722-.0869.3832-.179.0962-.3868a24.8317,24.8317,0,0,1,6.5882-2.0686c.4293.3837.95.1364,1.4242.2054a2.44,2.44,0,0,1,.5535-.2116,35.6332,35.6332,0,0,1,10.7339.3075c1.2972.2335,2.4966.8926,3.85.8327.2306.1009.5665-.1183.7142.2348a4.367,4.367,0,0,0,2.4259.9857,1.582,1.582,0,0,1,.5836.0369,27.2972,27.2972,0,0,1,7.5885,5.1522c.86.876,1.7665,1.7065,2.6407,2.569.3961.3908.942.8993.8049,1.3729-.1526.527-.8483.7377-1.4679.755A4.8157,4.8157,0,0,0,25.9539,290.2255Z" transform="translate(30.309 -272.4713)" fill="#e61b14"/><path d="M15.6013,277.4469c-1.3538.06-2.5532-.5992-3.85-.8327a35.6332,35.6332,0,0,0-10.7339-.3075,2.4358,2.4358,0,0,0-.5535.2117c-.2709-.3611-.6886-.1769-1.03-.277A28.2119,28.2119,0,0,1,15.6013,277.4469Z" transform="translate(30.309 -272.4713)" fill="#ec1e16"/><path d="M-26.3912,301.4851c.5682,1.0491,0,2.0976-.1127,3.1056a29.9184,29.9184,0,0,0,.2118,7.6622c.0624.429.263.8417-.1045,1.2226a21.18,21.18,0,0,1-.47-9.1232c.3651-.3745.1677-.834.19-1.26C-26.6139,302.5506-26.8321,301.9594-26.3912,301.4851Z" transform="translate(30.309 -272.4713)" fill="#e91d16"/><path d="M-.2557,289.96A15.9428,15.9428,0,0,1,8.11,288.9036c.82.1146,1.8645-.1735,2.4356.8006a20.7041,20.7041,0,0,0-10.053.2662Z" transform="translate(30.309 -272.4713)" fill="#f01d16"/><path d="M-19.6511,313.9823a1.4811,1.4811,0,0,1-.0859-.2773,13.67,13.67,0,0,1,4.1536-1.8835A20.345,20.345,0,0,1-19.6511,313.9823Z" transform="translate(30.309 -272.4713)" fill="#e81e16"/><path d="M-7.5489,278.3815c.287.2078.076.3-.0962.3868-.94.4744-1.8844.9413-2.8231,1.4188-.2325.1182-.4351.17-.5983-.0939A13.2011,13.2011,0,0,1-7.5489,278.3815Z" transform="translate(30.309 -272.4713)" fill="#eb1e16"/><path d="M-25.955,314.967c.0617-.2241.0908-.58.2927-.05.2572.6748.4135,1.46,1.4014,1.4166C-25.4845,317.0735-25.4845,317.0735-25.955,314.967Z" transform="translate(30.309 -272.4713)" fill="#ed1e17"/><path d="M25.9539,290.2255a4.8157,4.8157,0,0,1,2.9373-1.6721A9.8961,9.8961,0,0,1,25.9539,290.2255Z" transform="translate(30.309 -272.4713)" fill="#e71d16"/><path d="M18.7414,278.6674a4.367,4.367,0,0,1-2.4259-.9857A3.714,3.714,0,0,1,18.7414,278.6674Z" transform="translate(30.309 -272.4713)" fill="#e91e17"/><path d="M-7.8964,294.778c.1606-.7548.514-1.2932,1.3934-1.241Z" transform="translate(30.309 -272.4713)" fill="#ef1f18"/><path d="M-.2557,289.96l.7481.01-2.1247.7446C-1.4548,289.95-.7038,290.2313-.2557,289.96Z" transform="translate(30.309 -272.4713)" fill="#e61e17"/><path d="M-9.3866,296.4089c-.1076-.7618.2852-1.0842.9926-1.13Z" transform="translate(30.309 -272.4713)" fill="#f01e17"/><path d="M-15.6029,311.8332a1.8857,1.8857,0,0,1,1.4522-.9508A2.0819,2.0819,0,0,1-15.6029,311.8332Z" transform="translate(30.309 -272.4713)" fill="#f32018"/><path d="M-18.0388,285.7606c-.1545.8223-.3064.9889-.9532,1.0452A3.2344,3.2344,0,0,1-18.0388,285.7606Z" transform="translate(30.309 -272.4713)" fill="#fa2018"/><path d="M-24.46,295.4879c.2825.434.317.7777-.3191.8777Q-24.62,295.9267-24.46,295.4879Z" transform="translate(30.309 -272.4713)" fill="#ec1e17"/><path d="M-.5663,276.2414c.3412.1.7589-.0841,1.03.277-.4747-.0691-.9949.1782-1.4242-.2055Z" transform="translate(30.309 -272.4713)" fill="#fc1f17"/><path d="M-26.6765,303.092c-.0226.4263.1748.8858-.19,1.26A1.9828,1.9828,0,0,1-26.6765,303.092Z" transform="translate(30.309 -272.4713)" fill="#e61b14"/><path d="M4.3067,317.0768l-.2438-.0185a11.9327,11.9327,0,0,0-3.2376-1.3842A3.9631,3.9631,0,0,1-.764,314.3122a.6676.6676,0,0,0-.6886-.832,8.4451,8.4451,0,0,1,.0075-10.318,2.4226,2.4226,0,0,0,1.658-1.7238,1.2881,1.2881,0,0,1,.734-.4292.738.738,0,0,0,1.13-.5309c2.516-1.3532,7.37-.7636,9.4454,1.7986.7412.9149,1.731,1.625,2.1049,2.8128-.3182.2855-.1009.5718-.0211.8749a9.8577,9.8577,0,0,1,.3746,3.9768c-.1347.9659-.9774,1.7628-.6077,2.807a7.25,7.25,0,0,1-1.9892,2.4459.8843.8843,0,0,0-.6694.1714,8.2188,8.2188,0,0,1-4.3784,1.5848C5.6563,317.0238,4.9377,316.4567,4.3067,317.0768Z" transform="translate(30.309 -272.4713)" fill="#0875f3"/><path d="M13.3725,312.7484c-.37-1.0442.473-1.8411.6077-2.807a9.8577,9.8577,0,0,0-.3746-3.9768c-.08-.3031-.2971-.5894.0211-.8749A8.1613,8.1613,0,0,1,13.3725,312.7484Z" transform="translate(30.309 -272.4713)" fill="#0a7df4"/><path d="M4.3067,317.0768c.631-.62,1.35-.053,2.0288-.1263a8.2188,8.2188,0,0,0,4.3784-1.5848.8843.8843,0,0,1,.6694-.1714A7.6218,7.6218,0,0,1,4.3067,317.0768Z" transform="translate(30.309 -272.4713)" fill="#0a7bf0"/><path d="M.8253,315.6741a11.9327,11.9327,0,0,1,3.2376,1.3842A6.2954,6.2954,0,0,1,.8253,315.6741Z" transform="translate(30.309 -272.4713)" fill="#0a7bf0"/><path d="M.2129,301.4384a2.4226,2.4226,0,0,1-1.658,1.7238A6.0327,6.0327,0,0,1,.2129,301.4384Z" transform="translate(30.309 -272.4713)" fill="#0b81f5"/><path d="M2.0764,300.4783a.738.738,0,0,1-1.13.5309A2.4289,2.4289,0,0,1,2.0764,300.4783Z" transform="translate(30.309 -272.4713)" fill="#0a80f4"/><path d="M-1.4526,313.48a.6676.6676,0,0,1,.6886.832A1.7112,1.7112,0,0,1-1.4526,313.48Z" transform="translate(30.309 -272.4713)" fill="#0b84f9"/></svg>