<svg id="Layer_1" data-name="Layer 1" xmlns="http://www.w3.org/2000/svg" viewBox="0 0 31.3391 64.8423"><title>pokestop</title><path d="M433.5643,36.5852c-4.7046-2.27-9.4345-4.49-14.0875-6.8617a3.1559,3.1559,0,0,1-1.5879-2.1725c-.11-5.608-.0345-11.22.0278-16.83.003-.2726.4259-.54.6532-.8107l14.9468,8.0919Z" transform="translate(-417.8328 -2.6758)" style="fill:#64b4f5"/><path d="M433.5643,36.5852q-.0238-9.2916-.0478-18.5831l15.5169-7.413c.0622,5.5756.1947,11.1523.1123,16.7257a3.4318,3.4318,0,0,1-1.5912,2.4879C442.9464,32.1712,438.2386,34.3456,433.5643,36.5852Z" transform="translate(-417.8328 -2.6758)" style="fill:#2195f2"/><path d="M449.0334,10.5891l-15.5169,7.413L418.57,9.91c4.4374-2.2706,8.86-4.5719,13.3279-6.78a3.1889,3.1889,0,0,1,2.3883-.3259C439.2434,5.3173,444.1273,7.9751,449.0334,10.5891Z" transform="translate(-417.8328 -2.6758)" style="fill:#42a4f4"/><path d="M433.4878,43.4779l11.454,5.7294L433.5772,55.325Z" transform="translate(-417.8328 -2.6758)" style="fill:#2396f2"/><path d="M433.4878,43.4779l.0894,11.8471L422.289,49.2965Z" transform="translate(-417.8328 -2.6758)" style="fill:#65b5f5"/><path d="M435.0284,67.5181c-1.2842-.1391-2.9991.1656-3.73-.5437a3.7169,3.7169,0,0,1-.4277-3.5984c.5354-.8336,2.2924-.8827,3.514-1.2756C433.4034,64.0485,432.194,66.0236,435.0284,67.5181Z" transform="translate(-417.8328 -2.6758)" style="fill:#68b6f5"/><path d="M435.0284,67.5181c-2.8344-1.4945-1.625-3.47-.6437-5.4177C437.3443,63.58,437.4042,65.4044,435.0284,67.5181Z" transform="translate(-417.8328 -2.6758)" style="fill:#2899f2"/><path d="M435.5553,40.0271c-.9593.6266-1.6255,1.3663-2.0062,1.2407-.609-.201-1.0285-.9761-1.5281-1.5086.4846-.45,1.0278-1.3115,1.44-1.2529C434.0966,38.5966,434.6425,39.3179,435.5553,40.0271Z" transform="translate(-417.8328 -2.6758)" style="fill:#2659a9"/><path d="M435.5293,58.4784c-.8337.7615-1.3849,1.6065-1.7646,1.5354a2.6344,2.6344,0,0,1-1.6579-1.3206c-.128-.2669.7283-1.4318,1.1408-1.4333C433.8875,57.2575,434.53,57.9017,435.5293,58.4784Z" transform="translate(-417.8328 -2.6758)" style="fill:#2659a9"/></svg>